<svg width="101" height="33" viewBox="0 0 101 33" fill="none" xmlns="http://www.w3.org/2000/svg">
<path d="M88.9131 5.26086H79.3478C78.7136 5.26086 78.1054 5.5128 77.6569 5.96126C77.2085 6.40972 76.9565 7.01796 76.9565 7.65217V26.7826C76.9565 27.4168 77.2085 28.0251 77.6569 28.4735C78.1054 28.922 78.7136 29.1739 79.3478 29.1739H93.6957C94.3299 29.1739 94.9381 28.922 95.3866 28.4735C95.835 28.0251 96.087 27.4168 96.087 26.7826V12.4348L88.9131 5.26086Z" stroke="#0077FF" stroke-linecap="round" stroke-linejoin="round"/>
<path d="M88.9131 5.26086V12.4348H96.087" stroke="#0077FF" stroke-linecap="round" stroke-linejoin="round"/>
<path d="M91.3044 18.413H81.7392" stroke="#0077FF" stroke-linecap="round" stroke-linejoin="round"/>
<path d="M91.7826 24.3913H82.2174" stroke="#0077FF" stroke-linecap="round" stroke-linejoin="round"/>
<path d="M84.1305 13.6304H82.9348H81.7392" stroke="#0077FF" stroke-linecap="round" stroke-linejoin="round"/>
</svg>
