<svg width="95" height="50" viewBox="0 0 95 50" fill="none" xmlns="http://www.w3.org/2000/svg"><path fill-rule="evenodd" clip-rule="evenodd" d="M23.5342 48.9303C30.3728 52.6496 37.5825 45.6669 39.9634 43.2484C40.4679 42.7359 40.9268 42.2114 41.3724 41.702C43.0299 39.8073 44.5037 38.1225 47.4564 38.0525C50.3129 37.9847 51.1866 39.1667 52.6943 41.2062C53.164 41.8417 53.6953 42.5604 54.3672 43.3505C57.1958 46.6765 62.198 50.8986 68.6066 49.4605C75.0152 48.0223 84.2691 36.6402 84.2691 36.6402C84.2691 36.6402 93.8045 26.2048 94.793 21.3806C96.0634 14.0124 89.5358 7.51583 89.5358 7.51583C89.5358 7.51583 82.7149 1.32374 79.0771 0.41113C73.4657 -0.996624 67.0113 1.48034 64.3794 3.77021C61.4946 6.28015 54.7964 12.6837 55.7484 19.4124C56.228 22.8021 64.3794 29.4031 64.3794 29.4031C64.3794 29.4031 67.988 32.8234 67.988 35.4313C67.988 38.0392 66.7643 38.7844 64.774 39.1248C63.2116 39.3921 62.4121 38.4159 61.6034 37.4285C61.3819 37.1581 61.1598 36.8869 60.9211 36.6402C55.2124 30.7384 50.626 26.8588 47.162 27.0085C44.056 26.9152 40.541 29.901 34.6096 35.9661C34.5781 35.9982 34.5456 36.0315 34.5122 36.0658C33.4453 37.1586 31.3962 39.2576 29.7677 39.0843C28.0215 38.7466 25.9614 37.2483 26.7275 34.4417C27.4937 31.6351 33.954 26.2963 33.954 26.2963C33.954 26.2963 38.4264 22.4187 38.601 17.5553C38.7756 12.6919 34.6096 8.03477 34.6096 8.03477C34.6096 8.03477 28.8634 0.837437 24.1704 4.72184C19.4774 8.60624 25.7697 13.775 25.7697 13.775C25.7697 13.775 28.4775 15.7979 28.4775 18.1858C28.4775 21.8504 25.2057 24.5969 23.5342 25.6419C22.0482 26.5709 18.8689 28.1227 16.0457 27.0085C14.4733 26.3879 13.2482 24.9876 11.7309 22.5515C11.4372 22.0799 11.1314 21.406 10.7885 20.6505C9.36011 17.503 7.28821 12.9375 2.76487 15.6685C-2.8443 19.0552 2.92602 27.3226 2.92602 27.3226C2.92602 27.3226 10.1157 36.5004 13.3859 40.0245C16.97 43.887 20.0899 47.0571 23.5342 48.9303ZM79.8522 12.0006L79.882 12.025C82.3246 14.0271 83.3441 15.0728 83.795 18.1205C84.246 21.1683 81.6684 24.0981 81.6684 24.0981C81.6684 24.0981 78.6291 27.4468 75.5684 27.4468C72.5078 27.4468 69.4567 24.0981 69.4567 24.0981C69.4567 24.0981 67.0018 21.4679 66.7102 18.6868C66.4185 15.9056 68.3391 13.441 68.3391 13.441C68.3391 13.441 70.4132 10.0526 73.491 9.67506C76.5562 9.29904 77.4323 10.0171 79.8522 12.0006Z" fill="url(#paint0_linear)"/><defs><linearGradient id="paint0_linear" x1="142.5" y1="25" x2="101.285" y2="-53.308" gradientUnits="userSpaceOnUse"><stop stop-color="#2084FF"/><stop offset="1" stop-color="#0052D4"/></linearGradient></defs></svg>
