<?xml version="1.0" standalone="no"?>
<!DOCTYPE svg PUBLIC "-//W3C//DTD SVG 20010904//EN"
 "http://www.w3.org/TR/2001/REC-SVG-20010904/DTD/svg10.dtd">
<svg version="1.0" xmlns="http://www.w3.org/2000/svg"
 width="297.000000pt" height="297.000000pt" viewBox="0 0 297.000000 297.000000"
 preserveAspectRatio="xMidYMid meet">
<metadata>
Created by potrace 1.11, written by Peter Selinger 2001-2013
</metadata>
<g transform="translate(0.000000,297.000000) scale(0.100000,-0.100000)"
fill="#000000" stroke="none">
<path d="M2260 2260 c-128 -23 -236 -86 -334 -192 -117 -126 -171 -225 -182
-337 -10 -95 12 -132 187 -303 112 -110 156 -161 174 -199 43 -94 12 -166 -77
-176 l-45 -5 -119 118 c-247 246 -358 299 -489 233 -56 -28 -98 -63 -251 -210
-89 -86 -142 -129 -162 -134 -61 -13 -132 44 -132 106 0 48 47 114 160 222
127 123 162 166 191 231 56 128 7 296 -127 433 -63 64 -149 113 -200 113 -68
0 -144 -64 -149 -126 -6 -58 27 -119 105 -199 72 -75 85 -101 77 -157 -7 -51
-28 -89 -77 -141 -53 -58 -111 -94 -178 -111 -128 -34 -206 22 -305 219 -67
133 -107 169 -178 159 -105 -16 -156 -107 -129 -226 13 -55 60 -153 89 -185 9
-10 54 -65 101 -123 256 -321 445 -500 574 -547 49 -18 143 -12 207 13 91 35
198 118 306 236 71 79 105 99 174 105 82 8 113 -9 185 -104 75 -98 159 -172
241 -214 63 -31 75 -34 163 -34 89 0 101 2 161 33 128 65 272 199 485 452 189
225 254 335 259 437 8 165 -81 324 -262 468 -147 117 -210 147 -315 151 -46 1
-103 -1 -128 -6z m158 -309 c48 -25 159 -125 177 -162 9 -16 18 -55 21 -87 6
-51 3 -66 -22 -116 -45 -93 -147 -167 -229 -168 -122 -2 -275 155 -277 285 -2
90 69 201 157 246 51 27 124 27 173 2z"/>
</g>
</svg>
